<svg width="24" height="24" viewBox="0 0 24 24" fill="none" xmlns="http://www.w3.org/2000/svg">
<path fill-rule="evenodd" clip-rule="evenodd" d="M13.1549 3.36001C12.4839 3.01001 11.5749 3.00501 10.8979 3.35401C8.30488 4.69401 5.95288 6.22901 3.89188 7.93201C3.57288 8.19501 3.34688 8.57801 3.35088 9.02801C3.35488 9.47701 3.58488 9.85401 3.90188 10.113C5.94588 11.784 8.29988 13.321 10.8449 14.65C11.5169 15 12.4249 15.005 13.1019 14.656C15.6949 13.316 18.0469 11.781 20.1079 10.078C20.4269 9.81501 20.6529 9.43201 20.6489 8.98201C20.6449 8.53301 20.4139 8.156 20.0979 7.89701C18.0539 6.22601 15.6999 4.68901 13.1549 3.36001ZM11.5849 4.687C11.7228 4.62567 11.8722 4.59423 12.0232 4.59475C12.1742 4.59527 12.3233 4.62773 12.4609 4.69001C14.8899 5.95801 17.1279 7.417 19.0669 8.992C17.1169 10.593 14.8849 12.047 12.4139 13.323C12.1739 13.447 11.7809 13.446 11.5389 13.32C9.10988 12.052 6.87188 10.593 4.93188 9.018C6.88288 7.41701 9.11488 5.96301 11.5859 4.687" fill="#F4978E"/>
<path d="M21.197 12.698C21.3022 12.8667 21.3362 13.0703 21.2914 13.264C21.2465 13.4577 21.1266 13.6257 20.958 13.731L14.851 17.544C14.022 18.062 12.994 18.301 12 18.301C11.006 18.301 9.97802 18.061 9.14902 17.545L3.10902 13.775C2.94021 13.6697 2.82014 13.5017 2.77523 13.3079C2.73031 13.114 2.76423 12.9103 2.86952 12.7415C2.97481 12.5727 3.14285 12.4526 3.33667 12.4077C3.53049 12.3628 3.73421 12.3967 3.90302 12.502L9.94302 16.272C10.487 16.612 11.226 16.801 12 16.801C12.773 16.801 13.512 16.611 14.056 16.271L20.164 12.459C20.3327 12.3538 20.5363 12.3199 20.73 12.3647C20.9237 12.4095 21.0917 12.5294 21.197 12.698Z" fill="#F4978E"/>
<path d="M21.197 16.453C21.3023 16.6217 21.3362 16.8253 21.2914 17.019C21.2465 17.2127 21.1267 17.3807 20.958 17.486L15.67 20.79C14.612 21.45 13.29 21.761 12 21.761C10.712 21.761 9.39003 21.451 8.33103 20.791L3.10903 17.531C2.94022 17.4256 2.8202 17.2574 2.77538 17.0635C2.73056 16.8696 2.76461 16.6658 2.87003 16.497C2.97546 16.3282 3.14362 16.2082 3.33753 16.1634C3.53145 16.1185 3.73522 16.1526 3.90403 16.258L9.12603 19.518C9.89903 20.001 10.933 20.261 12.001 20.261C13.069 20.261 14.103 20.001 14.876 19.518L20.164 16.215C20.2476 16.1628 20.3407 16.1275 20.4379 16.1112C20.5351 16.0949 20.6345 16.098 20.7306 16.1202C20.8266 16.1424 20.9173 16.1833 20.9975 16.2406C21.0777 16.2979 21.1459 16.3704 21.198 16.454" fill="#F4978E"/>
</svg>
